# xmcd
#
# Track frame offsets: 
#        150
#        20535
#        50887
#        69052
#        86982
#        104485
#        124512
#        141805
#        165875
#        182420
#        202597
#        220917
#        239737
#        258172
#        276902
#        291500
#        314822
#        335130
#
# Disc length: 4673 seconds
#
# Revision: 2
# Processed by: cddbd v1.5.1PL0 Copyright (c) Steve Scherf et al.
# Submitted via: ExactAudioCopy v0.95a4
#
DISCID=15123f12
DTITLE=Various Artist - 散場電影院
DYEAR=2003
DGENRE=POP
TTITLE0=Whitney Houston/I'll always love you
TTITLE1=Bill Medley and Jeniffer Warnes/(I've Had) The time of my life
TTITLE2=Kenny G/Theme of dring young
TTITLE3=Irene Cara/Flashdance...what a feeling
TTITLE4=Phil Oakey and Giorgio Moroder/Together in electric dream
TTITLE5=Starship/Nothing gonna stop us now
TTITLE6=Ann Wilson and Mike Reno/Almost paradise
TTITLE7=Julee Cruise/Falling
TTITLE8=Kenny Loggins/Meet me half way
TTITLE9=OMD/If you leave
TTITLE10=Loverboy/Heaven in your eyes
TTITLE11=Dan Hartman/I can dream about you
TTITLE12=Ann Wilson and Robin Zander/Surrender to me
TTITLE13=Billy Ocean/When the going get tough,The tough get going
TTITLE14=John O'Banion/Satomi hakken den
TTITLE15=Air Supply/I can't wait forever
TTITLE16=James Ingram/Just once
TTITLE17=John Barry/Theme from somewhere in time
EXTD=
EXTT0=
EXTT1=
EXTT2=
EXTT3=
EXTT4=
EXTT5=
EXTT6=
EXTT7=
EXTT8=
EXTT9=
EXTT10=
EXTT11=
EXTT12=
EXTT13=
EXTT14=
EXTT15=
EXTT16=
EXTT17=
PLAYORDER=
